<?xml version="1.0" encoding="utf-8"?>
<!-- Generator: Adobe Illustrator 18.1.0, SVG Export Plug-In . SVG Version: 6.00 Build 0)  -->
<!DOCTYPE svg PUBLIC "-//W3C//DTD SVG 1.1//EN" "http://www.w3.org/Graphics/SVG/1.1/DTD/svg11.dtd">
<svg version="1.1" id="Lager_1" xmlns="http://www.w3.org/2000/svg" xmlns:xlink="http://www.w3.org/1999/xlink" x="0px" y="0px"
	 width="136.994px" height="80.001px" viewBox="0 0 136.994 80.001" enable-background="new 0 0 136.994 80.001"
	 xml:space="preserve">
<path fill="#C5A447" d="M81.325,50.165V31.259l7.201,12.183C86.613,46.137,84.16,48.429,81.325,50.165 M61.098,52.622V37.279
	L72.92,53.368c-1.428,0.258-2.9,0.395-4.402,0.395C65.932,53.763,63.439,53.363,61.098,52.622z M48.488,43.436l7.2-12.172v18.894
	C52.853,48.423,50.4,46.129,48.488,43.436z M64.558,5.674L45.531,37.838c-0.954-2.584-1.477-5.374-1.477-8.28
	C44.055,17.544,52.946,7.552,64.558,5.674z M68.513,9.446l6.743,11.543h-13.49L68.513,9.446z M75.916,48.639L61.139,28.534
	l-0.041,0.029v-0.065h-3.776l1.382-2.332h19.611l1.38,2.332h-3.779V48.639z M92.958,29.558c0,2.907-0.522,5.697-1.477,8.283
	L72.469,5.673C84.072,7.549,92.958,17.543,92.958,29.558z M68.519,0C52.047,0,38.646,13.259,38.646,29.558
	c0,16.297,13.402,29.559,29.873,29.559c16.458,0,29.848-13.262,29.848-29.559C98.367,13.259,84.977,0,68.519,0z"/>
<path fill="#C5A447" d="M5.073,72.466l-1.348,3.031h2.55L5.073,72.466 M7.913,79.53l-1.015-2.442H3.044L1.913,79.53H0l5.073-10.668
	h0.13L9.841,79.53H7.913z"/>
<path fill="#C5A447" d="M16.216,71.451c-0.101-0.191-0.232-0.368-0.392-0.485c-0.319-0.236-0.652-0.309-1.362-0.309h-0.97v3.178
	h0.826c0.261,0,0.464,0,0.594-0.014c0.334-0.014,0.666-0.118,0.899-0.28c0.377-0.279,0.579-0.736,0.579-1.295
	C16.39,71.966,16.333,71.702,16.216,71.451 M16.565,79.53l-3.087-4.341v4.341h-1.725V69.141h2.637c1.45,0,2.058,0.132,2.652,0.573
	c0.725,0.529,1.087,1.354,1.087,2.398c0,1.678-0.942,2.766-2.623,3.017l3.305,4.4H16.565z"/>
<path fill="#C5A447" d="M24.202,79.986h-0.13l-4.623-10.845h1.97l2.753,6.842l2.711-6.842h1.956L24.202,79.986"/>
<path fill="#C5A447" d="M30.781,79.53h1.739V69.141h-1.739V79.53z"/>
<path fill="#C5A447" d="M40.548,71.289c-0.58-0.426-1.406-0.632-2.522-0.632h-0.811v7.416h0.797c2.406,0,3.898-1.427,3.898-3.737
	C41.91,73.099,41.375,71.893,40.548,71.289 M40.853,78.985c-0.421,0.191-0.885,0.339-1.392,0.427
	c-0.638,0.103-0.84,0.117-2.159,0.117H35.49V69.141h1.812c1.928,0,2.985,0.162,3.84,0.589c1.565,0.765,2.536,2.501,2.536,4.488
	C43.678,76.366,42.605,78.176,40.853,78.985z"/>
<path fill="#C5A447" d="M58.605,79.81l-7.333-7.182v6.902h-1.695V68.861h0.145l7.391,7.019v-6.739h1.667V79.81H58.605"/>
<path fill="#C5A447" d="M66.43,70.598c-2.029,0-3.594,1.604-3.594,3.707c0,2.149,1.537,3.811,3.522,3.811
	c1.986,0,3.58-1.633,3.58-3.678C69.938,72.231,68.445,70.598,66.43,70.598 M66.343,79.735c-2.941,0-5.304-2.412-5.304-5.414
	c0-3.032,2.348-5.386,5.377-5.386c2.928,0,5.29,2.383,5.29,5.356C71.706,77.337,69.344,79.735,66.343,79.735z"/>
<path fill="#C5A447" d="M78.43,71.451c-0.101-0.191-0.232-0.368-0.391-0.485c-0.319-0.236-0.652-0.309-1.363-0.309h-0.971v3.178
	h0.826c0.261,0,0.464,0,0.595-0.014c0.333-0.014,0.666-0.118,0.898-0.28c0.377-0.279,0.58-0.736,0.58-1.295
	C78.604,71.966,78.546,71.702,78.43,71.451 M78.778,79.53l-3.087-4.341v4.341h-1.724V69.141h2.638c1.449,0,2.057,0.132,2.652,0.573
	c0.725,0.529,1.087,1.354,1.087,2.398c0,1.678-0.942,2.766-2.623,3.017l3.304,4.4H78.778z"/>
<path fill="#C5A447" d="M88.676,71.289c-0.579-0.426-1.406-0.632-2.521-0.632h-0.812v7.416h0.797c2.406,0,3.899-1.427,3.899-3.737
	C90.038,73.099,89.502,71.893,88.676,71.289 M88.981,78.985c-0.421,0.191-0.884,0.339-1.392,0.427
	c-0.637,0.103-0.84,0.117-2.159,0.117h-1.811V69.141h1.811c1.928,0,2.985,0.162,3.841,0.589c1.564,0.765,2.536,2.501,2.536,4.488
	C91.806,76.366,90.735,78.176,88.981,78.985z"/>
<path fill="#C5A447" d="M99.11,70.598c-2.043,0-3.609,1.604-3.609,3.707c0,2.178,1.537,3.811,3.594,3.811
	c0.71,0,0.914-0.058,1.391-0.338l-2.174-2.325h2.087l1.289,1.413c0.551-0.5,0.899-1.501,0.899-2.486
	C102.588,72.231,101.082,70.598,99.11,70.598 M102.515,79.986l-0.869-0.971c-0.71,0.457-1.652,0.72-2.637,0.72
	c-2.941,0-5.304-2.412-5.304-5.414c0-3.032,2.347-5.386,5.377-5.386c2.942,0,5.289,2.383,5.289,5.386
	c0,0.676-0.144,1.442-0.406,2.075c-0.289,0.721-0.478,1.015-1.101,1.735l1.725,1.869L102.515,79.986z"/>
<path fill="#C5A447" d="M114.081,78.205c-0.681,0.986-1.855,1.53-3.333,1.53c-1.362,0-2.275-0.352-3-1.176
	c-0.637-0.706-0.854-1.428-0.854-2.826v-6.592h1.739v6.091c0,1.354,0.145,1.884,0.638,2.355c0.39,0.382,0.869,0.544,1.608,0.544
	c0.696,0,1.232-0.22,1.608-0.648c0.392-0.455,0.522-1.015,0.522-2.206v-6.136h1.711v6.475
	C114.718,76.704,114.516,77.558,114.081,78.205"/>
<path fill="#C5A447" d="M117.706,79.53h1.739V69.141h-1.739V79.53z"/>
<path fill="#C5A447" d="M125.285,79.692c-0.753,0-1.392-0.177-1.985-0.574c-0.377-0.235-0.71-0.559-0.971-0.913
	c-0.29-0.397-0.42-0.647-0.652-1.294l1.479-0.575c0.463,1.265,1.188,1.898,2.217,1.898c0.956,0,1.623-0.633,1.623-1.53
	c0-0.662-0.39-1.191-1.145-1.56l-1.173-0.574c-1.623-0.795-2.275-1.59-2.275-2.84c0-1.604,1.261-2.767,3-2.767
	c0.609,0,1.246,0.147,1.696,0.382c0.507,0.265,0.898,0.647,1.349,1.31l-1.276,0.927c-0.305-0.486-0.435-0.647-0.667-0.825
	c-0.275-0.22-0.653-0.353-1.072-0.353c-0.784,0-1.29,0.457-1.29,1.149c0,0.25,0.072,0.441,0.217,0.648
	c0.189,0.264,0.421,0.426,0.986,0.706l0.985,0.501c1.015,0.514,1.088,0.544,1.479,0.913c0.639,0.588,0.955,1.309,0.955,2.162
	C128.763,78.352,127.314,79.692,125.285,79.692"/>
<path fill="#C5A447" d="M134.589,70.745v8.785h-1.724v-8.785h-2.406v-1.604h6.536v1.604H134.589"/>
</svg>
