<?xml version="1.0" encoding="iso-8859-1"?>
<!-- Generator: Adobe Illustrator 19.1.0, SVG Export Plug-In . SVG Version: 6.00 Build 0)  -->
<svg version="1.1" xmlns="http://www.w3.org/2000/svg" xmlns:xlink="http://www.w3.org/1999/xlink" x="0px" y="0px"
	 viewBox="0 0 560 560" style="enable-background:new 0 0 560 560;" xml:space="preserve">
<g id="Instagram">
	<g>
		<path style="display:none;fill:#FEFEFD;" d="M0,560C0,373.334,0,186.667,0,0c186.294,0,372.588,0,558.882,0
			c0,186.667,0,373.333,0,560C372.588,560,186.294,560,0,560z M278.988,3.354C126.97,3.289,3.551,126.489,3.355,278.5
			C3.158,430.763,126.529,554.352,278.781,554.411c152.034,0.059,275.426-123.115,275.63-275.144
			C554.615,127.013,431.241,3.419,278.988,3.354z"/>
		<path style="fill:#DCD210;" d="M278.988,3.354c152.252,0.065,275.627,123.659,275.422,275.913
			c-0.204,152.029-123.596,275.203-275.63,275.144C126.529,554.352,3.158,430.763,3.355,278.5
			C3.551,126.489,126.97,3.289,278.988,3.354z M433.693,280.073c0-32.786,0.004-65.571-0.001-98.357
			c-0.005-30.074-24.9-56.182-55.032-56.354c-65.941-0.377-131.888-0.363-197.83-0.018c-29.503,0.154-55.25,25.607-55.442,55.109
			c-0.434,66.313-0.413,132.633-0.016,198.947c0.175,29.287,25.521,54.973,54.754,55.186c66.312,0.483,132.633,0.459,198.946,0.015
			c29.855-0.2,54.613-26.404,54.619-56.171C433.698,345.644,433.693,312.859,433.693,280.073z"/>
		<path style="display:none;fill:#FEFEFD;" d="M433.693,280.073c0,32.786,0.005,65.571-0.001,98.357
			c-0.006,29.767-24.764,55.971-54.619,56.171c-66.313,0.445-132.633,0.469-198.946-0.015
			c-29.233-0.213-54.579-25.899-54.754-55.186c-0.397-66.314-0.418-132.633,0.016-198.947c0.193-29.502,25.939-54.955,55.442-55.109
			c65.942-0.345,131.888-0.359,197.83,0.018c30.132,0.172,55.027,26.28,55.032,56.354
			C433.697,214.502,433.693,247.287,433.693,280.073z M148.932,232.123c2.386,0.109,4.193,0.26,5.999,0.263
			c12.1,0.021,24.205-0.199,36.297,0.121c4.435,0.117,6.858-1.412,9.355-5.043c19.588-28.48,46.911-43.341,81.404-42.557
			c33.347,0.758,59.297,16.236,78.017,43.934c1.244,1.84,4.358,3.344,6.642,3.401c13.023,0.321,26.057,0.169,39.088,0.137
			c1.421-0.003,2.842-0.261,4.106-0.385c0.222-0.767,0.412-1.12,0.413-1.473c0.029-15.636,0.096-31.272,0.04-46.908
			c-0.069-19.468-14.671-34.541-34.137-34.585c-64.408-0.148-128.817-0.14-193.225,0.001c-17.202,0.038-31.05,12.224-33.398,29.325
			c-0.93,6.769-0.532,13.733-0.58,20.609C148.876,209.896,148.932,220.83,148.932,232.123z M279.866,208.697
			c-39.502-0.116-71.415,31.686-71.477,71.229c-0.062,39.159,31.792,71.222,70.835,71.302c39.629,0.08,71.629-31.582,71.694-70.938
			C350.984,240.616,319.422,208.814,279.866,208.697z"/>
		<path style="fill:#DCD210;" d="M148.932,232.123c0-11.293-0.056-22.227,0.02-33.161c0.048-6.876-0.35-13.839,0.58-20.609
			c2.349-17.101,16.196-29.288,33.398-29.325c64.408-0.141,128.817-0.149,193.225-0.001c19.466,0.045,34.068,15.117,34.137,34.585
			c0.056,15.636-0.012,31.272-0.04,46.908c-0.001,0.353-0.191,0.705-0.413,1.473c-1.264,0.124-2.685,0.382-4.106,0.385
			c-13.031,0.031-26.065,0.184-39.088-0.137c-2.284-0.056-5.398-1.56-6.642-3.401c-18.72-27.698-44.67-43.176-78.017-43.934
			c-34.493-0.784-61.816,14.076-81.404,42.557c-2.497,3.631-4.92,5.16-9.355,5.043c-12.091-0.319-24.197-0.1-36.297-0.121
			C153.124,232.383,151.318,232.232,148.932,232.123z M350.984,184.745c0,3.91-0.131,7.826,0.029,11.73
			c0.283,6.893,4.617,11.756,11.467,12.084c7.988,0.382,16.02,0.366,24.012,0.022c7.3-0.315,11.77-4.842,12.066-12.125
			c0.318-7.808,0.321-15.648,0.004-23.456c-0.305-7.515-5.104-11.918-12.646-12.047c-7.446-0.128-14.898-0.113-22.345-0.005
			c-7.76,0.112-12.364,4.777-12.576,12.625C350.895,177.294,350.978,181.021,350.984,184.745z"/>
		<path style="fill:#DCD210;" d="M279.866,208.697c39.555,0.117,71.118,31.919,71.052,71.592
			c-0.065,39.356-32.065,71.019-71.694,70.938c-39.043-0.079-70.897-32.142-70.835-71.302
			C208.452,240.383,240.364,208.581,279.866,208.697z M259.455,240.011c16.555,0.928,26.263,9.572,26.464,22.88
			c0.182,12.046-9.307,22.448-21.131,23.244c-7.342,0.495-13.554-1.926-18.594-7.2c-4.955-5.185-6.605-11.625-6.048-19.432
			c-10.901,16.635-5.731,41.8,10.695,55.49c17.595,14.664,43.445,13.74,60.122-2.15c16.62-15.835,18.79-41.581,5.054-59.954
			C302.843,235.269,278.104,229.32,259.455,240.011z"/>
		<path style="display:none;fill:#FEFEFD;" d="M350.981,184.745c-0.003-3.724-0.086-7.451,0.014-11.172
			c0.213-7.848,4.816-12.513,12.576-12.625c7.447-0.108,14.898-0.123,22.345,0.005c7.542,0.13,12.341,4.532,12.646,12.047
			c0.317,7.808,0.314,15.648-0.004,23.456c-0.296,7.283-4.766,11.81-12.066,12.125c-7.992,0.344-16.024,0.36-24.012-0.022
			c-6.851-0.328-11.185-5.191-11.467-12.084C350.853,192.571,350.984,188.656,350.981,184.745z"/>
		<path style="display:none;fill:#FEFEFD;" d="M259.455,240.011c18.649-10.691,43.388-4.742,56.562,12.879
			c13.736,18.373,11.566,44.118-5.054,59.954c-16.677,15.89-42.527,16.814-60.122,2.15c-16.427-13.69-21.596-38.855-10.695-55.49
			c-0.556,7.807,1.094,14.247,6.048,19.432c5.04,5.275,11.252,7.695,18.594,7.2c11.823-0.797,21.313-11.199,21.131-23.244
			C285.718,249.583,276.01,240.938,259.455,240.011z"/>
	</g>
</g>
</svg>
