<?xml version="1.0" encoding="iso-8859-1"?>
<!-- Generator: Adobe Illustrator 19.1.0, SVG Export Plug-In . SVG Version: 6.00 Build 0)  -->
<svg version="1.1" xmlns="http://www.w3.org/2000/svg" xmlns:xlink="http://www.w3.org/1999/xlink" x="0px" y="0px"
	 viewBox="0 0 560 560" style="enable-background:new 0 0 560 560;" xml:space="preserve">
<g id="Twitter">
	<g>
		<path style="display:none;fill:#FEFEFD;" d="M1.535,560.048c0-186.699,0-373.398,0-560.097c186.326,0,372.652,0,558.979,0
			c0,186.699,0,373.398,0,560.097C374.188,560.048,187.862,560.048,1.535,560.048z M556.042,278.743
			C555.968,126.69,432.672,3.393,280.606,3.306C128.344,3.219,4.817,126.747,4.89,279.024
			c0.073,152.053,123.376,275.354,275.437,275.434C432.607,554.538,556.116,431.03,556.042,278.743z"/>
		<path style="fill:#DCD210;" d="M556.042,278.743c0.074,152.286-123.435,275.795-275.714,275.715
			C128.266,554.378,4.964,431.077,4.89,279.024C4.817,126.747,128.344,3.219,280.606,3.306
			C432.672,3.393,555.968,126.69,556.042,278.743z M127.506,377.886c2.248,1.534,3.231,2.3,4.3,2.919
			c42.133,24.431,86.956,31.513,134.557,20.96C354.29,382.27,405.738,300.672,404.83,222.18c-0.043-3.733,1.115-5.897,3.852-8.44
			c8.021-7.452,15.543-15.445,23.164-23.32c1.119-1.157,1.71-2.825,2.748-4.602c-11.15,2.978-21.365,5.707-31.579,8.435
			c-0.232-0.518-0.465-1.036-0.697-1.553c11.808-8.145,20.301-18.732,25.296-33.285c-2.724,1.337-4.44,2.352-6.277,3.051
			c-9.541,3.635-19.124,7.16-28.667,10.789c-3.548,1.349-5.964,0.268-8.835-2.26c-18.589-16.367-40.094-21.175-63.43-13.048
			c-23.301,8.115-37.579,25.055-41.643,49.532c-1.311,7.893-0.205,16.187-0.205,24.939c-52.742-3.678-95.825-25.968-130.65-66.676
			c-15.053,33.293-8.903,61.006,17.731,84.815c-4.761-0.468-9.168-1.122-13.411-2.345c-4.232-1.22-8.299-3.009-12.496-4.57
			c-2.984,25.368,15.79,49.679,47.906,63.517c-8.353,0-16.705,0-25.885,0c4.188,13.671,11.873,23.598,22.268,31.552
			c10.356,7.924,22.337,11.79,36.571,12.825C192.522,372.491,162.418,380.73,127.506,377.886z"/>
		<path style="display:none;fill:#FEFEFD;" d="M127.506,377.886c34.913,2.844,65.017-5.395,93.083-26.349
			c-14.234-1.035-26.215-4.901-36.571-12.825c-10.395-7.954-18.08-17.881-22.268-31.552c9.18,0,17.532,0,25.885,0
			c-32.115-13.838-50.89-38.15-47.906-63.517c4.197,1.561,8.265,3.35,12.496,4.57c4.243,1.223,8.65,1.878,13.411,2.345
			c-26.634-23.809-32.784-51.523-17.731-84.815c34.825,40.708,77.908,62.998,130.65,66.676c0-8.752-1.105-17.046,0.205-24.939
			c4.064-24.477,18.342-41.417,41.643-49.532c23.335-8.127,44.841-3.319,63.43,13.048c2.872,2.528,5.288,3.609,8.835,2.26
			c9.543-3.629,19.126-7.154,28.667-10.789c1.836-0.7,3.553-1.715,6.277-3.051c-4.995,14.553-13.488,25.14-25.296,33.285
			c0.232,0.518,0.465,1.036,0.697,1.553c10.215-2.728,20.43-5.457,31.579-8.435c-1.037,1.777-1.629,3.445-2.748,4.602
			c-7.62,7.875-15.143,15.868-23.164,23.32c-2.737,2.543-3.895,4.707-3.852,8.44c0.908,78.492-50.541,160.09-138.468,179.585
			c-47.601,10.554-92.424,3.471-134.557-20.96C130.737,380.186,129.754,379.42,127.506,377.886z"/>
	</g>
</g>
</svg>
